<svg xmlns="http://www.w3.org/2000/svg" width="56.995" height="63.99" viewBox="0 0 56.995 63.99">
  <g id="Calendar" transform="translate(-902.303 -1153.077)">
    <g id="Christmas_Date" transform="translate(902.303 1153.077)">
      <g id="Group_1" data-name="Group 1" transform="translate(0 0)">
        <path id="Path_9" data-name="Path 9" d="M8.983,12.956a.993.993,0,0,0-1.985,0,.248.248,0,0,0,.5,0,.5.5,0,0,1,.992,0,1.028,1.028,0,0,1-.263.683L7.057,14.948a.233.233,0,0,0,.023.337.253.253,0,0,0,.166.059H8.735a.239.239,0,1,0,0-.478H7.787L8.6,13.95A1.5,1.5,0,0,0,8.983,12.956Z" transform="translate(11.332 32.473)" fill="#fff"/>
        <path id="Path_10" data-name="Path 10" d="M13.737,12.478a.239.239,0,1,0,0-.478H12.5a.245.245,0,0,0-.243.2L12,13.634a.24.24,0,0,0,.2.279.254.254,0,0,0,.223-.068.639.639,0,0,1,.466-.167.59.59,0,0,1,.6.573v.139a.5.5,0,0,1-.992,0,.248.248,0,0,0-.5,0,.993.993,0,0,0,1.985,0v-.139A1.12,1.12,0,0,0,12.808,13.2a1.2,1.2,0,0,0-.233.032l.129-.75Z" transform="translate(21.617 32.473)" fill="#fff"/>
        <path id="Path_11" data-name="Path 11" d="M52.814,6.817H46.337a1.382,1.382,0,0,0-1.3,1.454v7.272a2.608,2.608,0,1,1-5.181.023A2.906,2.906,0,0,1,41.6,12.809a1.455,1.455,0,0,0,.855-1.367V2.454a1.3,1.3,0,1,0-2.591,0V6.817H20.43a1.382,1.382,0,0,0-1.3,1.454v7.272a2.768,2.768,0,0,1-2.58,2.92,2.761,2.761,0,0,1-2.6-2.9,2.906,2.906,0,0,1,1.736-2.757,1.455,1.455,0,0,0,.855-1.367V2.454A1.382,1.382,0,0,0,15.249,1a1.382,1.382,0,0,0-1.3,1.454V6.817H6.181C3.319,6.817,1,9.42,1,12.634V59.172c0,3.214,2.319,5.817,5.181,5.817H43.2a2.45,2.45,0,0,0,1.839-.844l12.2-13.7A3.1,3.1,0,0,0,58,48.381V12.634C58,9.42,55.676,6.817,52.814,6.817ZM6.181,59.172v-34.9H52.814v22.92l-.311.349h-4.87c-2.863,0-5.181,2.6-5.181,5.817v5.468l-.311.349Z" transform="translate(-1 -1)" fill="#fff"/>
      </g>
    </g>
    <ellipse id="Ellipse_1" data-name="Ellipse 1" cx="13.5" cy="6.5" rx="13.5" ry="6.5" transform="translate(916 1192.077)" fill="#392861"/>
  </g>
</svg>
