<svg xmlns="http://www.w3.org/2000/svg" width="114.855" height="133.912" viewBox="0 0 114.855 133.912">
  <g id="Christmas_Date" transform="translate(-1 -1)">
    <g id="Group_1" data-name="Group 1" transform="translate(1 1)">
      <path id="Path_9" data-name="Path 9" d="M11,14a2,2,0,0,0-4,0,.5.5,0,0,0,1,0,1,1,0,0,1,2,0,2.2,2.2,0,0,1-.53,1.43L7.12,18.17A.5.5,0,0,0,7.5,19h3a.5.5,0,0,0,0-1H8.59l1.64-1.92A3.2,3.2,0,0,0,11,14Z" transform="translate(29.937 81.069)" fill="#fff"/>
      <path id="Path_10" data-name="Path 10" d="M15.5,13a.5.5,0,0,0,0-1H13a.5.5,0,0,0-.49.42l-.5,3a.5.5,0,0,0,.85.44,1.261,1.261,0,0,1,.94-.35,1.21,1.21,0,0,1,1.2,1.2V17a1,1,0,0,1-2,0,.5.5,0,1,0-1,0,2,2,0,0,0,4,0v-.29A2.29,2.29,0,0,0,13.629,14.5a2.325,2.325,0,0,0-.469.066L13.42,13Z" transform="translate(55.745 81.069)" fill="#fff"/>
      <path id="Path_11" data-name="Path 11" d="M105.414,13.174H92.362a2.853,2.853,0,0,0-2.61,3.043V31.435c.01,3.36-2.318,6.1-5.2,6.111s-5.231-2.7-5.242-6.063a6.1,6.1,0,0,1,3.5-5.77,3.056,3.056,0,0,0,1.723-2.861V4.043a2.641,2.641,0,1,0-5.221,0v9.13H40.155a2.853,2.853,0,0,0-2.61,3.043V31.435c.01,3.36-2.318,6.1-5.2,6.111s-5.231-2.7-5.242-6.063a6.1,6.1,0,0,1,3.5-5.77,3.056,3.056,0,0,0,1.723-2.861V4.043A2.853,2.853,0,0,0,29.714,1,2.853,2.853,0,0,0,27.1,4.043v9.13H11.441C5.673,13.174,1,18.622,1,25.348v97.391c0,6.726,4.673,12.174,10.441,12.174h74.6a4.862,4.862,0,0,0,3.707-1.765l24.589-28.669a6.637,6.637,0,0,0,1.514-4.322V25.348C115.855,18.622,111.183,13.174,105.414,13.174ZM11.441,122.738V49.7h93.972V97.66l-.626.73H94.972c-5.769,0-10.441,5.448-10.441,12.174v11.443l-.626.73Z" transform="translate(-1 -1)" fill="#fff"/>
    </g>
  </g>
</svg>
