<svg xmlns="http://www.w3.org/2000/svg" width="53.597" height="65.077" viewBox="0 0 53.597 65.077">
  <defs>
    <style>
      .cls-1 {
        fill: #fff;
        stroke: #707070;
        fill-rule: evenodd;
      }
    </style>
  </defs>
  <g id="Golf" transform="translate(0.5 0.757)">
    <path id="golf-2" data-name="golf" class="cls-1" d="M21.008,15.815V55.7h2.287V27.374l29.729-12.7L21.008,1V15.815Zm4.574,28.734c1.841-.159,3.754-.243,5.717-.243,14.524,0,26.3,4.592,26.3,10.257S45.823,64.819,31.3,64.819,5,60.227,5,54.563c0-3.888,5.546-7.27,13.721-9.01v6.275c-1.389.624-2.287,1.617-2.287,2.735,0,1.888,2.56,3.419,5.717,3.419s5.717-1.531,5.717-3.419c0-1.118-.9-2.111-2.287-2.735V44.549ZM40.446,55.7c1.894,0,3.43-1.02,3.43-2.279s-1.536-2.279-3.43-2.279-3.43,1.02-3.43,2.279,1.536,2.279,3.43,2.279Z" transform="translate(-5 -1)"/>
  </g>
</svg>
