<svg xmlns="http://www.w3.org/2000/svg" width="21.735" height="20" viewBox="0 0 21.735 20">
  <path id="ham_menu" data-name="ham menu" d="M3.552,10h18.63a1.82,1.82,0,0,0,1.552-2,1.82,1.82,0,0,0-1.552-2H3.552A1.82,1.82,0,0,0,2,8,1.82,1.82,0,0,0,3.552,10Zm18.63,4H3.552A1.82,1.82,0,0,0,2,16a1.82,1.82,0,0,0,1.552,2h18.63a1.82,1.82,0,0,0,1.552-2A1.82,1.82,0,0,0,22.182,14Zm0,8H3.552A1.82,1.82,0,0,0,2,24a1.82,1.82,0,0,0,1.552,2h18.63a1.82,1.82,0,0,0,1.552-2A1.82,1.82,0,0,0,22.182,22Z" transform="translate(-2 -6)"/>
</svg>
