<svg xmlns="http://www.w3.org/2000/svg" xmlns:xlink="http://www.w3.org/1999/xlink" width="283.084" height="393.68" viewBox="0 0 283.084 393.68">
  <defs>
    <filter id="Path_7" x="191.077" y="219.837" width="92.007" height="92.111" filterUnits="userSpaceOnUse">
      <feOffset dx="3" dy="3" input="SourceAlpha"/>
      <feGaussianBlur stdDeviation="3" result="blur"/>
      <feFlood flood-opacity="0.161"/>
      <feComposite operator="in" in2="blur"/>
      <feComposite in="SourceGraphic"/>
    </filter>
  </defs>
  <g id="Lakeside_Logo" data-name="Lakeside Logo" transform="translate(-818.966 -217.222)">
    <g id="Lakeside_Logo-2" data-name="Lakeside Logo" transform="translate(818.948 217.577)">
      <g id="Lakeside_Logo-3" data-name="Lakeside Logo" transform="translate(0 0)">
        <rect id="Rectangle_2" data-name="Rectangle 2" width="188.133" height="278.508" transform="translate(36.441 39.606)" fill="#392861"/>
        <path id="Path_1" data-name="Path 1" d="M146.464,2.522l-31.84,8.008s-17.158-.123-92.494-8.9,65.832,20.8,65.832,20.8l60.048-.144,12.832-3.425Z" transform="matrix(1, 0.017, -0.017, 1, 63.655, 261.553)" fill="#fff"/>
        <g id="Ball_2" data-name="Ball 2" transform="translate(195.755 266.016) rotate(-48)">
          <g transform="matrix(0.67, 0.74, -0.74, 0.67, 66.98, -323.7)" filter="url(#Path_7)">
            <path id="Path_7-2" data-name="Path 7" d="M27.979.311C42.641-.325,54.021,10.73,53.4,25S40.38,51.358,25.718,51.994-.323,41.575.3,27.3,13.318.947,27.979.311Z" transform="translate(196.68 265.35) rotate(-48)" fill="#fff"/>
          </g>
          <path id="Path_2" data-name="Path 2" d="M11.945,5.17,7.938,12.313,6.794,14.028,5.727,16.047,4.8,18.814l.239,3.127.708,2.129.688,2.592.96,2.476L9.044,33l1.269,2.725,1.1,1.736,2.23,2.684,3.292,1.538,2.927,1.343,2.736.827,2.972.293,1.762-.075,2.51-.107,3.244-1.082,2.219-.776,3.984-2.162,2.489-2.1,1.354-1.735,2.262-3.032,1.594-2.637,1.355-2.732,1.4-2.891.942-2.085.64-2.491.083-1.943.1-2.311-.689-2.518-.961-1.5-.782-1.406-1.4-1.738L46.137,7.267l-1.7-1.506-1.48-1.153L42,2.882l-1.16-1.016L38.988.379l2.644.719,1.212.682,2.809,1.611.967,1.06L48.366,6l2.088,2.27,1.3,1.937,1,1.635.582,1.338.84,1.537.662,1.964.346,3.122-.118,2.74-.1,2.259-.607,2.962-1.168,3.615-1.4,2.891L50.645,36.1l-1.922,2.546-2.184,2.19L43.67,43.375,40.545,45.4l-2.933,1.278-2.55,1.052-3.5.883-2.913.536-2.68.114h0l-2.314-.089L22.1,49.012,20.993,48.8l-2.213-.378-2.505-.837-.2-.125-.671-.421-2.673-1.572-2.351-1.49L8.02,41.727l-2-2.465L4.52,36.9l-.657-1.288-.648-1.559-.379-.977-.45-1.457L.278,28.686l.837-4.421.364-2.511.348-1.9.849-2.4L4.01,14.5,5.479,11.76Z" transform="translate(0.028 2.877)" fill="#392861"/>
        </g>
        <g id="Ball_1" data-name="Ball 1" transform="translate(26.76 0)" style="isolation: isolate">
          <path id="Path_6" data-name="Path 6" d="M29.709-.189c17.6,1.147,32.743,15.3,33.832,31.622S51.247,60.05,33.651,58.9.908,43.6-.181,27.281,12.113-1.335,29.709-.189Z" transform="translate(46.274 0) rotate(50)" fill="#fff"/>
          <path id="Path_2-2" data-name="Path 2" d="M5.334,6.6,3.725,17.55l.245,3.689,1.115,2.6,1.152,3.145L7.7,30.025l2.453,4.764,1.858,3.375,1.528,2.187L16.528,43.8l4.107,2.231,3.649,1.956,3.355,1.323,3.567.723,2.083.135,2.966.193,3.713-.864,2.534-.634,4.451-2.044,2.684-2.159,1.383-1.875L53.315,39.5l1.552-2.908,1.256-3.05,1.293-3.231.85-2.339.438-2.857-.152-2.281-.18-2.713-.906-2.906-1.011-1.793L54.871,13.11l-2.4-3L50.3,8.3,48.144,6.487,46.661,5.243l-3.075-1.8L41.222-.4l3.453,1.49,1.307.589,3.947,1.505L51.962,4.43l2.2,2.543L56.571,10.1l1.943,2.869,1.173,2.13,1,1.475.962,2.223.768,2.567.813,3.726.843,2.371-.453,3.5-.338,3.416-.92,4.115-1.293,3.231-1.123,2.015-1.953,2.759L55.678,48.8,52.6,51.422l-3.45,1.986-3.318,1.135-2.892.917-4.045.6L33.991,56l-2.714-.176-4.671.006-3.344-1.018-3.771.219-2.938-1.865-2.808-.776-1.192-2.581L9.915,47.375l-.956-2.65L6.839,41.937l-.928-1.242L3.528,36.72,2.354,34.337l-.879-2.2L.531,28.947.05,26.568-.089,23.5l-.124-1.26.049-2.159.338-2.6.9-3.014,1.456-3.717L3.5,9.124Z" transform="translate(43.582 2.493) rotate(50)" fill="#392861"/>
        </g>
        <path id="Path_3" data-name="Path 3" d="M503,686.747c.709-.563,136.459-96.773,127.682-126.225S586.208,484.6,578.6,488.528s35.108,43.851,32.182,68.067c-.692,5.726-37.071,64.522-42.129,69.376C546.761,646.982,502.417,687.2,503,686.747Z" transform="translate(-439.336 -427.621)" fill="#fff"/>
        <path id="Path_4" data-name="Path 4" d="M345.5,410c85.126,91.189,119.136,69.718,125.414,62.792s4.186-33.245,4.186-33.245,11.511,23.549,7.848,33.245-20.406,20.086-20.406,20.086-17.79,10.389-50.752-10.389S345.5,410,345.5,410Z" transform="translate(-338.363 -370.394)" fill="#fff"/>
        <path id="Path_5" data-name="Path 5" d="M35.518,23.847C-.876,2.526,0,0,0,0L35.319,18.825Z" transform="matrix(0.999, 0.035, -0.035, 0.999, 0.85, 48.137)" fill="#392861"/>
      </g>
      <rect id="Rectangle_3" data-name="Rectangle 3" width="193.62" height="11.106" transform="translate(34.089 382.219)" fill="#392861"/>
      <text id="Lakeside" transform="translate(40.087 350.09)" fill="#392861" font-size="40" font-family="Tahoma-Bold, Tahoma" font-weight="700"><tspan x="0" y="0">Lakeside</tspan></text>
      <text id="Lakeside-2" data-name="Lakeside" transform="matrix(1, 0, 0, -1, 40.087, 349.616)" fill="#9f9f9f" font-size="40" font-family="Tahoma-Bold, Tahoma" font-weight="700"><tspan x="0" y="0">Lakeside</tspan></text>
    </g>
  </g>
</svg>
