<svg id="Phone" xmlns="http://www.w3.org/2000/svg" width="51.98" height="63.847" viewBox="0 0 51.98 63.847">
  <defs>
    <style>
      .cls-1 {
        fill: #fff;
        fill-rule: evenodd;
      }
    </style>
  </defs>
  <g id="Icons-Communication">
    <g id="phone-2" data-name="phone">
      <path id="Shape" class="cls-1" d="M10.4,27.667A51.342,51.342,0,0,0,29.455,51.078l6.353-7.8c.866-1.064,2.021-1.419,2.888-.709a25.2,25.2,0,0,0,10.4,2.128c1.733,0,2.888,1.419,2.888,3.547V60.3c0,2.128-1.155,3.547-2.888,3.547C21.947,63.847,0,36.89,0,3.547,0,1.419,1.155,0,2.888,0H13c1.733,0,2.888,1.419,2.888,3.547a48.571,48.571,0,0,0,1.733,12.769,5.191,5.191,0,0,1-.578,3.547l-6.642,7.8Z"/>
    </g>
  </g>
</svg>
