<svg xmlns="http://www.w3.org/2000/svg" width="115.159" height="139.548" viewBox="0 0 115.159 139.548">
  <g id="Phone" transform="translate(-25)">
    <g id="Icons-Communication">
      <g id="phone-2" data-name="phone">
        <path id="Shape" d="M23.032,60.471a112.552,112.552,0,0,0,42.225,51.168L79.332,94.583c1.919-2.326,4.478-3.1,6.4-1.551a56.481,56.481,0,0,0,23.032,4.652c3.839,0,6.4,3.1,6.4,7.753V131.8c0,4.652-2.559,7.753-6.4,7.753C48.623,139.548,0,80.628,0,7.753,0,3.1,2.559,0,6.4,0H28.79c3.839,0,6.4,3.1,6.4,7.753a104.821,104.821,0,0,0,3.839,27.91,11.214,11.214,0,0,1-1.28,7.753L23.032,60.471Z" transform="translate(25)" fill="#fff" fill-rule="evenodd"/>
      </g>
    </g>
  </g>
</svg>
