<svg xmlns="http://www.w3.org/2000/svg" width="117.776" height="116.248" viewBox="0 0 117.776 116.248">
  <g id="Tee" transform="translate(-418.5 105.703)">
    <g id="icon-28-golf" transform="translate(419 -105)">
      <path id="golf" d="M40.541,27.707v71.9h5.077V48.544l66-22.892L40.541,1V27.707ZM50.7,79.5c4.087-.287,8.334-.438,12.693-.438,32.247,0,58.388,8.278,58.388,18.489s-26.141,18.489-58.388,18.489S5,107.767,5,97.556C5,90.548,17.314,84.45,35.463,81.314V92.625c-3.083,1.125-5.077,2.915-5.077,4.931,0,3.4,5.683,6.163,12.693,6.163s12.693-2.759,12.693-6.163c0-2.016-1.994-3.806-5.077-4.931V79.5Zm33,20.106c4.206,0,7.616-1.84,7.616-4.109S87.9,91.393,83.7,91.393s-7.616,1.839-7.616,4.109,3.41,4.109,7.616,4.109Z" transform="translate(-5 -1)" fill="#fff" stroke="#707070" stroke-width="1" fill-rule="evenodd"/>
    </g>
  </g>
</svg>
