<svg xmlns="http://www.w3.org/2000/svg" width="44" height="40" viewBox="0 0 44 40">
  <g id="Twitter" transform="translate(0 -551.668)">
    <rect id="rect2990-1" width="44" height="40" rx="20" transform="translate(0 551.668)" fill="#55acee"/>
    <path id="rect2989" d="M109.062,672.306a5.441,5.441,0,0,0-5.543,5.188,4.769,4.769,0,0,0,.145,1.184,16.729,16.729,0,0,1-11.734-5.423,4.825,4.825,0,0,0-.772,2.611,5.084,5.084,0,0,0,2.534,4.318,6.107,6.107,0,0,1-2.58-.65c0,.021,0,.045,0,.067a5.339,5.339,0,0,0,4.567,5.087,6.243,6.243,0,0,1-1.5.182,6.172,6.172,0,0,1-1.071-.093,5.656,5.656,0,0,0,5.315,3.6,12.129,12.129,0,0,1-7.067,2.221A12.614,12.614,0,0,1,90,690.533a17.254,17.254,0,0,0,8.725,2.332c10.471,0,16.2-7.909,16.2-14.768,0-.225,0-.451-.015-.674a11.023,11.023,0,0,0,2.84-2.686,12.186,12.186,0,0,1-3.269.818,5.316,5.316,0,0,0,2.5-2.872,12.09,12.09,0,0,1-3.616,1.261,5.954,5.954,0,0,0-4.155-1.639c-.049,0-.1,0-.147,0Z" transform="translate(-82.196 -110.684)" fill="#fff"/>
  </g>
</svg>
