<svg xmlns="http://www.w3.org/2000/svg" width="6.392" height="9.246" viewBox="0 0 6.392 9.246">
  <path id="twitter" d="M26.333,65.083a1.8,1.8,0,0,1-.734.364,2.555,2.555,0,0,0,.563-1.275,2.069,2.069,0,0,1-.812.559A1.145,1.145,0,0,0,24.415,64c-.707,0-1.279,1.033-1.279,2.306a4,4,0,0,0,.033.526,3.59,3.59,0,0,1-2.637-2.411,3.818,3.818,0,0,0-.173,1.159A3.1,3.1,0,0,0,20.93,67.5a.88.88,0,0,1-.58-.288v.029A2.374,2.374,0,0,0,21.376,69.5a.764.764,0,0,1-.337.081.7.7,0,0,1-.24-.043c.162.916.635,1.583,1.2,1.6a2.014,2.014,0,0,1-1.589.988A1.465,1.465,0,0,1,20.1,72.1a2.613,2.613,0,0,0,1.959,1.042c2.354,0,3.64-3.515,3.64-6.563,0-.1,0-.2,0-.3A4.627,4.627,0,0,0,26.333,65.083Z" transform="matrix(1, -0.017, 0.017, 1, -21.214, -63.531)" fill="#fff"/>
</svg>
