<svg xmlns="http://www.w3.org/2000/svg" width="24.555" height="32.414" viewBox="0 0 24.555 32.414">
  <defs>
    <style>
      .cls-1 {
        fill: #9d9d9d;
      }
    </style>
  </defs>
  <path id="twitter" class="cls-1" d="M24.076,3.894a7.182,7.182,0,0,1-2.838,1.257A8.463,8.463,0,0,0,23.391.691,7.951,7.951,0,0,1,20.256,2.63,4.48,4.48,0,0,0,16.622.04C13.884.02,11.69,3.629,11.717,8.1a12.773,12.773,0,0,0,.139,1.847C7.735,9.578,4.061,6.328,1.59,1.409A12.159,12.159,0,0,0,.944,5.47a10.3,10.3,0,0,0,2.247,6.755A3.607,3.607,0,0,1,.938,11.2v.1c.024,3.925,1.753,7.2,4.025,7.962a3.189,3.189,0,0,1-1.3.274,2.962,2.962,0,0,1-.932-.157c.649,3.22,2.5,5.571,4.666,5.654a7.828,7.828,0,0,1-6.135,3.421,6.268,6.268,0,0,1-1.183-.126A10.635,10.635,0,0,0,7.688,32.04c9.12.067,14.029-12.231,13.964-22.928,0-.351-.009-.7-.022-1.044A15.536,15.536,0,0,0,24.076,3.894Z" transform="matrix(1, -0.017, 0.017, 1, -0.077, 0.38)"/>
</svg>
