<svg id="whatsapp" xmlns="http://www.w3.org/2000/svg" width="24" height="32" viewBox="0 0 24 32">
  <defs>
    <style>
      .cls-1 {
        fill: #9d9d9d;
        fill-rule: evenodd;
      }
    </style>
  </defs>
  <path id="Path_12" data-name="Path 12" class="cls-1" d="M24.615,8.139a10.637,10.637,0,0,0-8.453-4.65c-6.587,0-11.947,7.113-11.95,15.856a19.961,19.961,0,0,0,1.6,7.927l-1.7,8.217,6.335-2.205a9.717,9.717,0,0,0,5.711,1.93h0c6.586,0,11.947-7.114,11.95-15.857A18.689,18.689,0,0,0,24.615,8.139Zm-8.453,24.4h0A8.157,8.157,0,0,1,11.1,30.7l-.363-.286L6.981,31.722l1-4.863-.236-.5A16.459,16.459,0,0,1,6.23,19.346c0-7.267,4.458-13.179,9.936-13.179a8.839,8.839,0,0,1,7.022,3.865,15.534,15.534,0,0,1,2.906,9.324C26.092,26.624,21.636,32.536,16.162,32.536Z" transform="translate(-4.112 -3.489)"/>
  <path id="Path_13" data-name="Path 13" class="cls-1" d="M27.956,27.389c-.3-.2-1.767-1.157-2.04-1.289s-.473-.2-.672.2-.771,1.289-.945,1.554-.348.3-.647.1a8.066,8.066,0,0,1-2.4-1.966,12.084,12.084,0,0,1-1.661-2.745.693.693,0,0,1,.131-.809c.134-.178.3-.463.448-.694a2.988,2.988,0,0,0,.3-.661.941.941,0,0,0-.025-.694c-.075-.2-.672-2.149-.921-2.942-.242-.772-.489-.668-.672-.68s-.373-.014-.572-.014a1,1,0,0,0-.8.5,5.154,5.154,0,0,0-1.045,3.305,9.163,9.163,0,0,0,1.219,4.1c.149.265,2.105,4.266,5.1,5.983a14.716,14.716,0,0,0,1.7.835,3.126,3.126,0,0,0,1.881.157,3.245,3.245,0,0,0,2.015-1.884,4.33,4.33,0,0,0,.174-1.884C28.454,27.687,28.255,27.587,27.956,27.389Z" transform="translate(-10.458 -8.213)"/>
</svg>
