<svg xmlns="http://www.w3.org/2000/svg" xmlns:xlink="http://www.w3.org/1999/xlink" width="78.539" height="43" viewBox="0 0 78.539 43">
  <defs>
    <clipPath id="clip-path">
      <path id="Path_15" data-name="Path 15" d="M0-17.41l78.113-.84.427,42.295L0,24.75Z" transform="translate(-2 1624)" fill="#e4e4e4"/>
    </clipPath>
  </defs>
  <g id="WhatsApp" transform="translate(2 -1605.75)" clip-path="url(#clip-path)">
    <g id="flat" transform="translate(18.295 1605.75)">
      <g id="whatsapp-2" data-name="whatsapp">
        <path id="Path_16" data-name="Path 16" d="M18.975,43c10.479,0,18.975-9.626,18.975-21.5S29.454,0,18.975,0,0,9.626,0,21.5,8.5,43,18.975,43Z" fill="#57bb63" fill-rule="evenodd"/>
        <path id="Path_17" data-name="Path 17" d="M215.516,238.8a9.4,9.4,0,0,1-4.988-1.443l-5.713,2.057,1.862-6.224a12.647,12.647,0,0,1-1.48-5.99c0-6.407,4.62-11.6,10.319-11.6s10.318,5.194,10.318,11.6S221.214,238.8,215.516,238.8Zm0-21.354c-4.784,0-8.675,4.375-8.675,9.753a10.535,10.535,0,0,0,1.652,5.719l-1.084,3.622,3.333-1.2a7.96,7.96,0,0,0,4.773,1.613c4.783,0,8.675-4.375,8.675-9.753s-3.892-9.754-8.675-9.754Zm5.21,12.425c-.063-.118-.232-.19-.485-.332s-1.5-.83-1.728-.925-.4-.143-.569.142-.653.925-.8,1.115-.295.214-.548.071a6.793,6.793,0,0,1-2.034-1.411,8.487,8.487,0,0,1-1.407-1.969.444.444,0,0,1,.111-.58c.114-.128.253-.332.38-.5a1.986,1.986,0,0,0,.253-.474.58.58,0,0,0-.021-.5c-.063-.142-.569-1.541-.78-2.111s-.421-.474-.569-.474-.316-.024-.485-.024a.887.887,0,0,0-.675.356,3.368,3.368,0,0,0-.885,2.372,5.9,5.9,0,0,0,1.033,2.941c.126.189,1.749,3.154,4.32,4.293s2.572.759,3.036.711a2.581,2.581,0,0,0,1.707-1.352,2.665,2.665,0,0,0,.148-1.353Z" transform="translate(-196.496 -205.674)" fill="#fff" fill-rule="evenodd"/>
      </g>
    </g>
  </g>
</svg>
