<svg xmlns="http://www.w3.org/2000/svg" width="7.371" height="8.912" viewBox="0 0 7.371 8.912">
  <g id="whatsapp" transform="translate(-4.112 -3.489)">
    <path id="Path_12" data-name="Path 12" d="M10.409,4.784a3.367,3.367,0,0,0-2.6-1.3c-2.023,0-3.67,1.981-3.67,4.416a5.115,5.115,0,0,0,.49,2.208L4.112,12.4l1.946-.614a3.191,3.191,0,0,0,1.754.538h0c2.023,0,3.669-1.981,3.67-4.416A4.879,4.879,0,0,0,10.409,4.784Zm-2.6,6.794h0a2.668,2.668,0,0,1-1.553-.512l-.111-.08-1.155.364L5.3,10l-.073-.139a4.227,4.227,0,0,1-.466-1.953c0-2.024,1.369-3.67,3.052-3.67A2.8,2.8,0,0,1,9.971,5.311a4.055,4.055,0,0,1,.893,2.6C10.863,9.932,9.494,11.579,7.813,11.579Z" fill="#fff" fill-rule="evenodd"/>
    <path id="Path_13" data-name="Path 13" d="M19.974,19.71c-.092-.055-.543-.322-.627-.359s-.145-.055-.206.055-.237.359-.29.433-.107.083-.2.028a2.458,2.458,0,0,1-.737-.548,3.313,3.313,0,0,1-.51-.764.18.18,0,0,1,.04-.225c.041-.049.092-.129.138-.193a.8.8,0,0,0,.092-.184.239.239,0,0,0-.008-.193c-.023-.055-.206-.6-.283-.819s-.15-.186-.206-.189-.115,0-.176,0a.315.315,0,0,0-.245.138,1.355,1.355,0,0,0-.321.921,2.39,2.39,0,0,0,.374,1.141,4.509,4.509,0,0,0,1.567,1.666,4.731,4.731,0,0,0,.523.232,1.053,1.053,0,0,0,.578.044.967.967,0,0,0,.619-.525,1.1,1.1,0,0,0,.053-.525C20.127,19.793,20.066,19.765,19.974,19.71Z" transform="translate(-10.488 -10.88)" fill="#fff" fill-rule="evenodd"/>
  </g>
</svg>
